<svg height="512" width="512" xmlns="http://www.w3.org/2000/svg"><path d="M392.809 100.086v345.269c0 9.748-7.868 17.645-17.616 17.645H136.78c-9.732 0-17.615-7.896-17.615-17.645V100.086m103.842-34.472c0-9.732 7.899-17.614 17.614-17.614h32.888c9.715 0 17.611 7.882 17.611 17.614M179.813 132.38v292.455M332.145 132.38v292.455m-76.16-291.371v292.428M90.397 82.407h331.208" fill="none" stroke="#000" stroke-linecap="round" stroke-linejoin="round" stroke-miterlimit="10" stroke-width="8"/></svg>000000" stroke-linecap="round" stroke-linejoin="round" stroke-miterlimit="10" stroke-width="8"/><path d="    M223.007,65.614c0-9.732,7.899-17.614,17.614-17.614h32.888c9.715,0,17.611,7.882,17.611,17.614" fill="none" stroke="#000000" stroke-linecap="round" stroke-linejoin="round" stroke-miterlimit="10" stroke-width="8"/><line fill="none" stroke="#000000" stroke-linecap="round" stroke-linejoin="round" stroke-miterlimit="10" stroke-width="8" x1="179.813" x2="179.813" y1="132.38" y2="424.835"/><line fill="none" stroke="#000000" stroke-linecap="round" stroke-linejoin="round" stroke-miterlimit="10" stroke-width="8" x1="332.145" x2="332.145" y1="132.38" y2="424.835"/><line fill="none" stroke="#000000" stroke-linecap="round" stroke-linejoin="round" stroke-miterlimit="10" stroke-width="8" x1="255.985" x2="255.985" y1="133.464" y2="425.892"/><line fill="none" stroke="#000000" stroke-linecap="round" stroke-linejoin="round" stroke-miterlimit="10" stroke-width="8" x1="90.397" x2="421.605" y1="82.407" y2="82.407"/></g></svg>