<svg viewBox="0 0 32 32" xmlns="http://www.w3.org/2000/svg"><defs><style>.cls-1{fill:#101820}</style></defs><g data-name="Layer 42" id="Layer_42"><path class="cls-1" d="M2 29a1 1 0 01-1-1.11l.77-7a1 1 0 01.29-.59L18.42 3.94a3.2 3.2 0 014.53 0l3.11 3.11a3.2 3.2 0 010 4.53L9.71 27.93a1 1 0 01-.59.29l-7 .77zm7-1.78zm-5.27-5.77l-.6 5.42 5.42-.6 16.1-16.1a1.2 1.2 0 000-1.7l-3.12-3.12a1.2 1.2 0 00-1.7 0z"/><path class="cls-1" d="M23 14.21a1 1 0 01-.71-.29l-6.21-6.23a1 1 0 011.42-1.42l6.23 6.23a1 1 0 010 1.42 1 1 0 01-.73.29z"/><path class="cls-1" transform="rotate(-45 12.901 17.096)" d="M7.39 16.1H18.4v2H7.39z"/><path class="cls-1" d="M30 29H14a1 1 0 010-2h16a1 1 0 010 2z"/></g></svg>